<mxfile host="app.diagrams.net" modified="2021-01-08T02:16:45.684Z" agent="5.0 (Windows NT 10.0; Win64; x64) AppleWebKit/537.36 (KHTML, like Gecko) Chrome/87.0.4280.88 Safari/537.36" etag="K53y47Q3RaIUBKD1akVS" version="14.1.8" type="github">
  <diagram id="C5RBs43oDa-KdzZeNtuy" name="Page-1">
    <mxGraphModel dx="1173" dy="735" grid="1" gridSize="10" guides="1" tooltips="1" connect="1" arrows="1" fold="1" page="1" pageScale="1" pageWidth="827" pageHeight="1169" math="0" shadow="0">
      <root>
        <mxCell id="WIyWlLk6GJQsqaUBKTNV-0" />
        <mxCell id="WIyWlLk6GJQsqaUBKTNV-1" parent="WIyWlLk6GJQsqaUBKTNV-0" />
        <mxCell id="WIyWlLk6GJQsqaUBKTNV-3" value="JobReady" style="rounded=1;whiteSpace=wrap;html=1;fontSize=12;glass=0;strokeWidth=1;shadow=0;" parent="WIyWlLk6GJQsqaUBKTNV-1" vertex="1">
          <mxGeometry x="160" y="80" width="120" height="40" as="geometry" />
        </mxCell>
        <mxCell id="WIyWlLk6GJQsqaUBKTNV-6" value="SubmitJobSuccess?" style="rhombus;whiteSpace=wrap;html=1;shadow=0;fontFamily=Helvetica;fontSize=12;align=center;strokeWidth=1;spacing=6;spacingTop=-4;" parent="WIyWlLk6GJQsqaUBKTNV-1" vertex="1">
          <mxGeometry x="150" y="170" width="140" height="80" as="geometry" />
        </mxCell>
        <mxCell id="KJFF0_ZiscU5DcXsJ_4G-0" value="&lt;div&gt;&amp;nbsp; &amp;nbsp; &amp;nbsp; &amp;nbsp; &amp;nbsp; &amp;nbsp; &amp;nbsp; &amp;nbsp; &amp;nbsp; &amp;nbsp; &amp;nbsp;ModelJobSubmitFailed&lt;/div&gt;&lt;div&gt;&lt;br&gt;&lt;/div&gt;" style="rounded=1;whiteSpace=wrap;html=1;fontSize=12;glass=0;strokeWidth=1;shadow=0;" vertex="1" parent="WIyWlLk6GJQsqaUBKTNV-1">
          <mxGeometry x="349" y="190" width="130" height="40" as="geometry" />
        </mxCell>
        <mxCell id="KJFF0_ZiscU5DcXsJ_4G-3" style="edgeStyle=orthogonalEdgeStyle;rounded=0;orthogonalLoop=1;jettySize=auto;html=1;exitX=0.5;exitY=1;exitDx=0;exitDy=0;entryX=0.5;entryY=0;entryDx=0;entryDy=0;" edge="1" parent="WIyWlLk6GJQsqaUBKTNV-1" source="KJFF0_ZiscU5DcXsJ_4G-1" target="KJFF0_ZiscU5DcXsJ_4G-2">
          <mxGeometry relative="1" as="geometry" />
        </mxCell>
        <mxCell id="KJFF0_ZiscU5DcXsJ_4G-1" value="&lt;div&gt;ScopeJobModelSubmitted&lt;br&gt;&lt;/div&gt;" style="rounded=1;whiteSpace=wrap;html=1;fontSize=12;glass=0;strokeWidth=1;shadow=0;" vertex="1" parent="WIyWlLk6GJQsqaUBKTNV-1">
          <mxGeometry x="145" y="290" width="150" height="40" as="geometry" />
        </mxCell>
        <mxCell id="KJFF0_ZiscU5DcXsJ_4G-2" value="ModuleBuildSuccess?" style="rhombus;whiteSpace=wrap;html=1;shadow=0;fontFamily=Helvetica;fontSize=12;align=center;strokeWidth=1;spacing=6;spacingTop=-4;" vertex="1" parent="WIyWlLk6GJQsqaUBKTNV-1">
          <mxGeometry x="150" y="370" width="140" height="80" as="geometry" />
        </mxCell>
        <mxCell id="KJFF0_ZiscU5DcXsJ_4G-5" value="ModelBuildJobFaild" style="rounded=1;whiteSpace=wrap;html=1;" vertex="1" parent="WIyWlLk6GJQsqaUBKTNV-1">
          <mxGeometry x="354" y="380" width="120" height="60" as="geometry" />
        </mxCell>
        <mxCell id="KJFF0_ZiscU5DcXsJ_4G-8" value="" style="endArrow=classic;html=1;exitX=0.5;exitY=1;exitDx=0;exitDy=0;entryX=0.5;entryY=0;entryDx=0;entryDy=0;" edge="1" parent="WIyWlLk6GJQsqaUBKTNV-1" source="KJFF0_ZiscU5DcXsJ_4G-2">
          <mxGeometry relative="1" as="geometry">
            <mxPoint x="270" y="480" as="sourcePoint" />
            <mxPoint x="220" y="510" as="targetPoint" />
          </mxGeometry>
        </mxCell>
        <mxCell id="KJFF0_ZiscU5DcXsJ_4G-9" value="Yes" style="edgeLabel;resizable=0;html=1;align=center;verticalAlign=middle;" connectable="0" vertex="1" parent="KJFF0_ZiscU5DcXsJ_4G-8">
          <mxGeometry relative="1" as="geometry" />
        </mxCell>
        <mxCell id="KJFF0_ZiscU5DcXsJ_4G-11" value="" style="endArrow=classic;html=1;exitX=0.5;exitY=1;exitDx=0;exitDy=0;entryX=0.5;entryY=0;entryDx=0;entryDy=0;" edge="1" parent="WIyWlLk6GJQsqaUBKTNV-1" source="WIyWlLk6GJQsqaUBKTNV-6" target="KJFF0_ZiscU5DcXsJ_4G-1">
          <mxGeometry relative="1" as="geometry">
            <mxPoint x="340" y="262.5" as="sourcePoint" />
            <mxPoint x="340" y="357.5" as="targetPoint" />
          </mxGeometry>
        </mxCell>
        <mxCell id="KJFF0_ZiscU5DcXsJ_4G-12" value="Yes" style="edgeLabel;resizable=0;html=1;align=center;verticalAlign=middle;" connectable="0" vertex="1" parent="KJFF0_ZiscU5DcXsJ_4G-11">
          <mxGeometry relative="1" as="geometry" />
        </mxCell>
        <mxCell id="KJFF0_ZiscU5DcXsJ_4G-14" value="" style="endArrow=classic;html=1;exitX=1;exitY=0.5;exitDx=0;exitDy=0;entryX=0;entryY=0.5;entryDx=0;entryDy=0;" edge="1" parent="WIyWlLk6GJQsqaUBKTNV-1" source="WIyWlLk6GJQsqaUBKTNV-6" target="KJFF0_ZiscU5DcXsJ_4G-0">
          <mxGeometry relative="1" as="geometry">
            <mxPoint x="295" y="210" as="sourcePoint" />
            <mxPoint x="295" y="305" as="targetPoint" />
          </mxGeometry>
        </mxCell>
        <mxCell id="KJFF0_ZiscU5DcXsJ_4G-15" value="No" style="edgeLabel;resizable=0;html=1;align=center;verticalAlign=middle;" connectable="0" vertex="1" parent="KJFF0_ZiscU5DcXsJ_4G-14">
          <mxGeometry relative="1" as="geometry" />
        </mxCell>
        <mxCell id="KJFF0_ZiscU5DcXsJ_4G-16" value="" style="endArrow=classic;html=1;entryX=0;entryY=0.5;entryDx=0;entryDy=0;" edge="1" parent="WIyWlLk6GJQsqaUBKTNV-1" target="KJFF0_ZiscU5DcXsJ_4G-5">
          <mxGeometry relative="1" as="geometry">
            <mxPoint x="290" y="410" as="sourcePoint" />
            <mxPoint x="349" y="409.76" as="targetPoint" />
          </mxGeometry>
        </mxCell>
        <mxCell id="KJFF0_ZiscU5DcXsJ_4G-17" value="No" style="edgeLabel;resizable=0;html=1;align=center;verticalAlign=middle;" connectable="0" vertex="1" parent="KJFF0_ZiscU5DcXsJ_4G-16">
          <mxGeometry relative="1" as="geometry" />
        </mxCell>
        <mxCell id="KJFF0_ZiscU5DcXsJ_4G-18" value="" style="endArrow=classic;html=1;entryX=0.5;entryY=0;entryDx=0;entryDy=0;" edge="1" parent="WIyWlLk6GJQsqaUBKTNV-1" target="WIyWlLk6GJQsqaUBKTNV-6">
          <mxGeometry width="50" height="50" relative="1" as="geometry">
            <mxPoint x="220" y="120" as="sourcePoint" />
            <mxPoint x="216" y="169" as="targetPoint" />
          </mxGeometry>
        </mxCell>
        <mxCell id="KJFF0_ZiscU5DcXsJ_4G-19" value="JobReady" style="rounded=1;whiteSpace=wrap;html=1;fontSize=12;glass=0;strokeWidth=1;shadow=0;" vertex="1" parent="WIyWlLk6GJQsqaUBKTNV-1">
          <mxGeometry x="160" y="80" width="120" height="40" as="geometry" />
        </mxCell>
        <mxCell id="KJFF0_ZiscU5DcXsJ_4G-20" value="NeedInternalFI" style="rhombus;whiteSpace=wrap;html=1;shadow=0;fontFamily=Helvetica;fontSize=12;align=center;strokeWidth=1;spacing=6;spacingTop=-4;" vertex="1" parent="WIyWlLk6GJQsqaUBKTNV-1">
          <mxGeometry x="150" y="510" width="140" height="80" as="geometry" />
        </mxCell>
        <mxCell id="KJFF0_ZiscU5DcXsJ_4G-21" value="" style="endArrow=classic;html=1;entryX=0;entryY=0.5;entryDx=0;entryDy=0;" edge="1" parent="WIyWlLk6GJQsqaUBKTNV-1">
          <mxGeometry relative="1" as="geometry">
            <mxPoint x="290" y="549.71" as="sourcePoint" />
            <mxPoint x="354" y="549.71" as="targetPoint" />
          </mxGeometry>
        </mxCell>
        <mxCell id="KJFF0_ZiscU5DcXsJ_4G-22" value="No" style="edgeLabel;resizable=0;html=1;align=center;verticalAlign=middle;" connectable="0" vertex="1" parent="KJFF0_ZiscU5DcXsJ_4G-21">
          <mxGeometry relative="1" as="geometry" />
        </mxCell>
        <mxCell id="KJFF0_ZiscU5DcXsJ_4G-23" value="" style="endArrow=classic;html=1;exitX=0.5;exitY=1;exitDx=0;exitDy=0;entryX=0.5;entryY=0;entryDx=0;entryDy=0;" edge="1" parent="WIyWlLk6GJQsqaUBKTNV-1">
          <mxGeometry relative="1" as="geometry">
            <mxPoint x="219.71" y="590" as="sourcePoint" />
            <mxPoint x="219.71" y="650" as="targetPoint" />
          </mxGeometry>
        </mxCell>
        <mxCell id="KJFF0_ZiscU5DcXsJ_4G-24" value="Yes" style="edgeLabel;resizable=0;html=1;align=center;verticalAlign=middle;" connectable="0" vertex="1" parent="KJFF0_ZiscU5DcXsJ_4G-23">
          <mxGeometry relative="1" as="geometry" />
        </mxCell>
        <mxCell id="KJFF0_ZiscU5DcXsJ_4G-31" style="edgeStyle=orthogonalEdgeStyle;rounded=0;orthogonalLoop=1;jettySize=auto;html=1;entryX=1;entryY=0.5;entryDx=0;entryDy=0;" edge="1" parent="WIyWlLk6GJQsqaUBKTNV-1" source="KJFF0_ZiscU5DcXsJ_4G-25" target="KJFF0_ZiscU5DcXsJ_4G-30">
          <mxGeometry relative="1" as="geometry">
            <Array as="points">
              <mxPoint x="422" y="970" />
            </Array>
          </mxGeometry>
        </mxCell>
        <mxCell id="KJFF0_ZiscU5DcXsJ_4G-25" value="ModelBuildJobFinished" style="rounded=1;whiteSpace=wrap;html=1;" vertex="1" parent="WIyWlLk6GJQsqaUBKTNV-1">
          <mxGeometry x="354" y="520" width="136" height="60" as="geometry" />
        </mxCell>
        <mxCell id="KJFF0_ZiscU5DcXsJ_4G-29" style="edgeStyle=orthogonalEdgeStyle;rounded=0;orthogonalLoop=1;jettySize=auto;html=1;entryX=0.561;entryY=-0.053;entryDx=0;entryDy=0;entryPerimeter=0;" edge="1" parent="WIyWlLk6GJQsqaUBKTNV-1" source="KJFF0_ZiscU5DcXsJ_4G-26" target="KJFF0_ZiscU5DcXsJ_4G-27">
          <mxGeometry relative="1" as="geometry" />
        </mxCell>
        <mxCell id="KJFF0_ZiscU5DcXsJ_4G-26" value="BuildInternalFIReady" style="rounded=1;whiteSpace=wrap;html=1;" vertex="1" parent="WIyWlLk6GJQsqaUBKTNV-1">
          <mxGeometry x="159" y="650" width="136" height="60" as="geometry" />
        </mxCell>
        <mxCell id="KJFF0_ZiscU5DcXsJ_4G-32" style="edgeStyle=orthogonalEdgeStyle;rounded=0;orthogonalLoop=1;jettySize=auto;html=1;entryX=0.447;entryY=-0.064;entryDx=0;entryDy=0;entryPerimeter=0;" edge="1" parent="WIyWlLk6GJQsqaUBKTNV-1" source="KJFF0_ZiscU5DcXsJ_4G-27" target="KJFF0_ZiscU5DcXsJ_4G-30">
          <mxGeometry relative="1" as="geometry" />
        </mxCell>
        <mxCell id="KJFF0_ZiscU5DcXsJ_4G-27" value="BuildFILogic ..." style="rounded=1;whiteSpace=wrap;html=1;" vertex="1" parent="WIyWlLk6GJQsqaUBKTNV-1">
          <mxGeometry x="154.5" y="780" width="131" height="60" as="geometry" />
        </mxCell>
        <mxCell id="KJFF0_ZiscU5DcXsJ_4G-34" style="edgeStyle=orthogonalEdgeStyle;rounded=0;orthogonalLoop=1;jettySize=auto;html=1;" edge="1" parent="WIyWlLk6GJQsqaUBKTNV-1" source="KJFF0_ZiscU5DcXsJ_4G-30" target="KJFF0_ZiscU5DcXsJ_4G-33">
          <mxGeometry relative="1" as="geometry" />
        </mxCell>
        <mxCell id="KJFF0_ZiscU5DcXsJ_4G-30" value="Gating Check" style="rounded=1;whiteSpace=wrap;html=1;" vertex="1" parent="WIyWlLk6GJQsqaUBKTNV-1">
          <mxGeometry x="166" y="940" width="120" height="60" as="geometry" />
        </mxCell>
        <mxCell id="KJFF0_ZiscU5DcXsJ_4G-33" value="GatingCheckSuccess?" style="rhombus;whiteSpace=wrap;html=1;shadow=0;fontFamily=Helvetica;fontSize=12;align=center;strokeWidth=1;spacing=6;spacingTop=-4;" vertex="1" parent="WIyWlLk6GJQsqaUBKTNV-1">
          <mxGeometry x="154" y="1030" width="144" height="80" as="geometry" />
        </mxCell>
        <mxCell id="KJFF0_ZiscU5DcXsJ_4G-35" value="" style="endArrow=classic;html=1;entryX=0;entryY=0.5;entryDx=0;entryDy=0;" edge="1" parent="WIyWlLk6GJQsqaUBKTNV-1">
          <mxGeometry relative="1" as="geometry">
            <mxPoint x="295" y="1070" as="sourcePoint" />
            <mxPoint x="359" y="1069.66" as="targetPoint" />
          </mxGeometry>
        </mxCell>
        <mxCell id="KJFF0_ZiscU5DcXsJ_4G-36" value="No" style="edgeLabel;resizable=0;html=1;align=center;verticalAlign=middle;" connectable="0" vertex="1" parent="KJFF0_ZiscU5DcXsJ_4G-35">
          <mxGeometry relative="1" as="geometry" />
        </mxCell>
        <mxCell id="KJFF0_ZiscU5DcXsJ_4G-37" value="" style="endArrow=classic;html=1;exitX=0.5;exitY=1;exitDx=0;exitDy=0;entryX=0.5;entryY=0;entryDx=0;entryDy=0;" edge="1" parent="WIyWlLk6GJQsqaUBKTNV-1">
          <mxGeometry relative="1" as="geometry">
            <mxPoint x="226.66000000000003" y="1109" as="sourcePoint" />
            <mxPoint x="226.66000000000003" y="1169" as="targetPoint" />
          </mxGeometry>
        </mxCell>
        <mxCell id="KJFF0_ZiscU5DcXsJ_4G-38" value="Yes" style="edgeLabel;resizable=0;html=1;align=center;verticalAlign=middle;" connectable="0" vertex="1" parent="KJFF0_ZiscU5DcXsJ_4G-37">
          <mxGeometry relative="1" as="geometry" />
        </mxCell>
        <mxCell id="KJFF0_ZiscU5DcXsJ_4G-39" value="GatingFailed" style="rounded=1;whiteSpace=wrap;html=1;" vertex="1" parent="WIyWlLk6GJQsqaUBKTNV-1">
          <mxGeometry x="360" y="1040" width="136" height="60" as="geometry" />
        </mxCell>
        <mxCell id="KJFF0_ZiscU5DcXsJ_4G-42" style="edgeStyle=orthogonalEdgeStyle;rounded=0;orthogonalLoop=1;jettySize=auto;html=1;entryX=0.5;entryY=0;entryDx=0;entryDy=0;" edge="1" parent="WIyWlLk6GJQsqaUBKTNV-1" source="KJFF0_ZiscU5DcXsJ_4G-40" target="KJFF0_ZiscU5DcXsJ_4G-41">
          <mxGeometry relative="1" as="geometry" />
        </mxCell>
        <mxCell id="KJFF0_ZiscU5DcXsJ_4G-44" style="edgeStyle=orthogonalEdgeStyle;rounded=0;orthogonalLoop=1;jettySize=auto;html=1;exitX=1;exitY=0.5;exitDx=0;exitDy=0;entryX=0;entryY=0.5;entryDx=0;entryDy=0;" edge="1" parent="WIyWlLk6GJQsqaUBKTNV-1" source="KJFF0_ZiscU5DcXsJ_4G-40">
          <mxGeometry relative="1" as="geometry">
            <mxPoint x="362" y="1199.0000000000002" as="targetPoint" />
          </mxGeometry>
        </mxCell>
        <mxCell id="KJFF0_ZiscU5DcXsJ_4G-40" value="GatingPass" style="rounded=1;whiteSpace=wrap;html=1;" vertex="1" parent="WIyWlLk6GJQsqaUBKTNV-1">
          <mxGeometry x="162" y="1169" width="136" height="60" as="geometry" />
        </mxCell>
        <mxCell id="KJFF0_ZiscU5DcXsJ_4G-41" value="IRMatchIndexSuccess" style="rounded=1;whiteSpace=wrap;html=1;" vertex="1" parent="WIyWlLk6GJQsqaUBKTNV-1">
          <mxGeometry x="162" y="1620" width="136" height="60" as="geometry" />
        </mxCell>
        <mxCell id="KJFF0_ZiscU5DcXsJ_4G-49" value="NeedCopyToProd?" style="rhombus;whiteSpace=wrap;html=1;shadow=0;fontFamily=Helvetica;fontSize=12;align=center;strokeWidth=1;spacing=6;spacingTop=-4;" vertex="1" parent="WIyWlLk6GJQsqaUBKTNV-1">
          <mxGeometry x="360" y="1159" width="144" height="80" as="geometry" />
        </mxCell>
        <mxCell id="KJFF0_ZiscU5DcXsJ_4G-50" value="" style="endArrow=classic;html=1;exitX=0.5;exitY=1;exitDx=0;exitDy=0;entryX=0.5;entryY=0;entryDx=0;entryDy=0;" edge="1" parent="WIyWlLk6GJQsqaUBKTNV-1">
          <mxGeometry relative="1" as="geometry">
            <mxPoint x="431.6600000000001" y="1239.0000000000002" as="sourcePoint" />
            <mxPoint x="431.6600000000001" y="1299.0000000000002" as="targetPoint" />
          </mxGeometry>
        </mxCell>
        <mxCell id="KJFF0_ZiscU5DcXsJ_4G-51" value="Yes" style="edgeLabel;resizable=0;html=1;align=center;verticalAlign=middle;" connectable="0" vertex="1" parent="KJFF0_ZiscU5DcXsJ_4G-50">
          <mxGeometry relative="1" as="geometry" />
        </mxCell>
        <mxCell id="KJFF0_ZiscU5DcXsJ_4G-58" style="edgeStyle=orthogonalEdgeStyle;rounded=0;orthogonalLoop=1;jettySize=auto;html=1;exitX=0.5;exitY=1;exitDx=0;exitDy=0;entryX=0.5;entryY=0;entryDx=0;entryDy=0;" edge="1" parent="WIyWlLk6GJQsqaUBKTNV-1" source="KJFF0_ZiscU5DcXsJ_4G-56">
          <mxGeometry relative="1" as="geometry">
            <mxPoint x="432" y="1390" as="targetPoint" />
          </mxGeometry>
        </mxCell>
        <mxCell id="KJFF0_ZiscU5DcXsJ_4G-56" value="WaitCertainTime" style="rounded=1;whiteSpace=wrap;html=1;" vertex="1" parent="WIyWlLk6GJQsqaUBKTNV-1">
          <mxGeometry x="364" y="1300" width="136" height="60" as="geometry" />
        </mxCell>
        <mxCell id="KJFF0_ZiscU5DcXsJ_4G-60" style="edgeStyle=orthogonalEdgeStyle;rounded=0;orthogonalLoop=1;jettySize=auto;html=1;entryX=1;entryY=0.5;entryDx=0;entryDy=0;" edge="1" parent="WIyWlLk6GJQsqaUBKTNV-1" source="KJFF0_ZiscU5DcXsJ_4G-59" target="KJFF0_ZiscU5DcXsJ_4G-41">
          <mxGeometry relative="1" as="geometry">
            <Array as="points">
              <mxPoint x="436" y="1650" />
            </Array>
          </mxGeometry>
        </mxCell>
        <mxCell id="KJFF0_ZiscU5DcXsJ_4G-59" value="CopyToProd" style="rounded=1;whiteSpace=wrap;html=1;" vertex="1" parent="WIyWlLk6GJQsqaUBKTNV-1">
          <mxGeometry x="368" y="1390" width="136" height="60" as="geometry" />
        </mxCell>
        <mxCell id="KJFF0_ZiscU5DcXsJ_4G-61" value="" style="endArrow=classic;html=1;entryX=1;entryY=0.5;entryDx=0;entryDy=0;exitX=1;exitY=0.5;exitDx=0;exitDy=0;" edge="1" parent="WIyWlLk6GJQsqaUBKTNV-1" source="KJFF0_ZiscU5DcXsJ_4G-49" target="KJFF0_ZiscU5DcXsJ_4G-41">
          <mxGeometry relative="1" as="geometry">
            <mxPoint x="496" y="1070" as="sourcePoint" />
            <mxPoint x="596" y="1069.66" as="targetPoint" />
            <Array as="points">
              <mxPoint x="550" y="1199" />
              <mxPoint x="550" y="1650" />
            </Array>
          </mxGeometry>
        </mxCell>
        <mxCell id="KJFF0_ZiscU5DcXsJ_4G-62" value="No" style="edgeLabel;resizable=0;html=1;align=center;verticalAlign=middle;" connectable="0" vertex="1" parent="KJFF0_ZiscU5DcXsJ_4G-61">
          <mxGeometry relative="1" as="geometry" />
        </mxCell>
      </root>
    </mxGraphModel>
  </diagram>
</mxfile>
